<svg xmlns="http://www.w3.org/2000/svg" width="128" height="128" viewBox="0 0 128 128" fill="none">
  <rect width="128" height="128" rx="24" fill="#EAF2FF"/>
  <path d="M42 86h44c6.627 0 12-5.373 12-12s-5.373-12-12-12h-2.5a4.5 4.5 0 1 1 0-9H86c6.627 0 12-5.373 12-12S92.627 29 86 29H67a4.5 4.5 0 1 0 0 9h19c1.657 0 3 1.343 3 3s-1.343 3-3 3H83.5C77.149 44 72 49.149 72 55.5S77.149 67 83.5 67H86c1.657 0 3 1.343 3 3s-1.343 3-3 3H42a4 4 0 0 0 0 8Z" fill="#2563EB"/>
  <path d="M27 82c0-3.866 3.134-7 7-7h31a7 7 0 1 1 0 14H34c-3.866 0-7-3.134-7-7Z" fill="#3B82F6"/>
</svg>
